<svg width="163" height="32" viewBox="0 0 163 32" fill="none" xmlns="http://www.w3.org/2000/svg">
<g id="Color - full">
<path id="Vector" d="M51.188 21.887H45.1769L44.2177 24.6738H40.125L45.9443 8.92334H50.4526L56.2719 24.6738H52.1472L51.188 21.887ZM50.1649 18.9122L48.1825 13.1506L46.2001 18.9122H50.1649Z" fill="#001C71"/>
<path id="Vector_2" d="M56.9109 12.618C57.5783 11.4227 58.5755 10.4353 59.7886 9.76851C61.0674 9.06865 62.5124 8.71217 63.9772 8.73518C65.7282 8.68979 67.4462 9.20665 68.8692 10.2069C70.2317 11.2047 71.2025 12.6309 71.619 14.2463H67.3025C67.0146 13.6177 66.5341 13.0924 65.9276 12.7433C65.1402 12.3164 64.231 12.1556 63.3409 12.2858C62.4508 12.416 61.6293 12.8299 61.0036 13.4635C60.228 14.3982 59.8297 15.5794 59.8845 16.7827C59.8845 18.1604 60.2682 19.2564 61.0036 20.0705C61.6293 20.7041 62.4508 21.118 63.3409 21.2482C64.231 21.3784 65.1402 21.2176 65.9276 20.7907C66.5341 20.4416 67.0146 19.9163 67.3025 19.2877H71.619C71.2106 20.8981 70.2373 22.3168 68.8692 23.2958C67.5263 24.2978 65.8956 24.7675 63.9772 24.7675C62.5153 24.8001 61.0705 24.4544 59.7886 23.7655C58.5817 23.0908 57.5865 22.1053 56.9109 20.916C56.221 19.6441 55.8692 18.2227 55.8877 16.7827C55.8652 15.3322 56.2171 13.8997 56.9109 12.618Z" fill="#001C71"/>
<path id="Vector_3" d="M74.2719 12.618C74.92 11.4087 75.922 10.4165 77.1496 9.76847C78.5593 9.02093 80.1514 8.66651 81.7525 8.74381C83.3536 8.8211 84.9024 9.32716 86.2302 10.2069C87.5826 11.208 88.5423 12.6342 88.948 14.2463H84.6315C84.3453 13.6264 83.878 13.1034 83.2886 12.7432C82.6752 12.4023 81.9794 12.2293 81.2742 12.2422C80.7228 12.2247 80.1741 12.3249 79.6662 12.5358C79.1582 12.7467 78.7032 13.0632 78.3326 13.4634C77.557 14.3982 77.1588 15.5793 77.2135 16.7826C77.2135 18.1604 77.5972 19.2564 78.3326 20.0705C78.7032 20.4707 79.1582 20.7873 79.6662 20.9981C80.1741 21.209 80.7228 21.3092 81.2742 21.2917C81.9794 21.3046 82.6752 21.1316 83.2886 20.7907C83.878 20.4306 84.3453 19.9076 84.6315 19.2877H88.948C88.5504 20.8946 87.5883 22.3134 86.2302 23.2957C84.8006 24.3068 83.0687 24.8245 81.3062 24.7675C79.8544 24.8005 78.4198 24.4546 77.1496 23.7654C75.9289 23.1085 74.9292 22.1186 74.2719 20.9159C73.5672 19.6497 73.2144 18.2244 73.2487 16.7826C73.2117 15.3306 73.5646 13.8946 74.2719 12.618Z" fill="#001C71"/>
<path id="Vector_4" d="M90.9297 24.6736V8.73519H98.2517C98.9832 8.72654 99.7063 8.88749 100.362 9.20489C101.004 9.51132 101.58 9.93667 102.057 10.4574C102.531 10.9617 102.91 11.5449 103.176 12.1796C103.429 12.797 103.559 13.4559 103.559 14.1211C103.561 14.6074 103.496 15.0917 103.368 15.5615C103.259 16.0106 103.086 16.4426 102.856 16.8453C102.412 17.6564 101.734 18.321 100.906 18.7554L104.487 24.6736H100.234L97.1327 19.5382H94.6706V24.6736H90.9297ZM94.6706 16.313H98.1239C98.3455 16.3095 98.5631 16.2536 98.758 16.15C98.9528 16.0464 99.1192 15.8982 99.2429 15.718C99.5773 15.2516 99.7458 14.6905 99.7226 14.1211C99.7431 13.8378 99.7057 13.5533 99.6123 13.2844C99.519 13.0156 99.3716 12.7677 99.179 12.5554C99.0342 12.3818 98.8544 12.2394 98.6509 12.137C98.4473 12.0347 98.2243 11.9745 97.996 11.9604H94.6706V16.313Z" fill="#001C71"/>
<path id="Vector_5" d="M109.413 8.92334V18.3486C109.413 19.288 109.637 20.0082 110.116 20.5092C110.596 21.0102 111.3 21.292 112.195 21.292C113.09 21.292 113.825 21.0415 114.305 20.5092C114.827 19.9097 115.091 19.1349 115.04 18.3486V8.92334H118.973V18.3173C119.011 19.5686 118.69 20.8053 118.046 21.887C117.455 22.8321 116.601 23.5925 115.584 24.0789C114.514 24.5693 113.348 24.8261 112.166 24.8315C110.985 24.8369 109.816 24.5908 108.742 24.1102C107.734 23.6191 106.899 22.845 106.344 21.887C105.738 20.7931 105.44 19.5611 105.48 18.3173V8.92334H109.413Z" fill="#001C71"/>
<path id="Vector_6" d="M125.495 11.992V15.186H130.738V18.1294H125.495V21.6052H131.442V24.6738H121.594V8.92334H131.442V11.992H125.495Z" fill="#001C71"/>
<path id="Vector_7" d="M148.709 24.6738H144.808L138.253 14.9668V24.6738H134.32V8.92334H138.253L144.808 18.693V8.92334H148.709V24.6738Z" fill="#001C71"/>
<path id="Vector_8" d="M163 8.92334V11.992H158.748V24.6738H154.815V11.992H150.562V8.92334H163Z" fill="#001C71"/>
<g id="Group 1">
<path id="Vector_9" d="M15.7275 20.2271H5.78357C4.77212 20.2223 3.77722 20.4785 2.8991 20.9701C2.02098 21.4617 1.29066 22.1713 0.781702 23.0273C0.272746 23.8833 0.0031347 24.8555 2.71703e-05 25.8461C-0.00308036 26.8367 0.260426 27.8105 0.764002 28.6696C1.26758 29.5286 1.99344 30.2426 2.86845 30.7394C3.74347 31.2363 4.73674 31.4985 5.74821 31.4998C6.75967 31.501 7.7536 31.2412 8.62988 30.7464C9.50615 30.2517 10.2338 29.5395 10.7396 28.6817H10.7715L15.7275 20.2271Z" fill="#001C71"/>
<path id="Vector_10" d="M29.0306 20.2271H19.0547L24.0426 28.6816C24.5477 29.5383 25.2741 30.2497 26.1488 30.7444C27.0236 31.2391 28.0159 31.4996 29.026 31.4998C30.0361 31.4999 31.0285 31.2397 31.9034 30.7453C32.7783 30.2509 33.5049 29.5397 34.0102 28.6832C34.5156 27.8266 34.7818 26.8549 34.7822 25.8657C34.7826 24.8764 34.5172 23.9045 34.0125 23.0476C33.5079 22.1906 32.7819 21.4789 31.9074 20.9838C31.0329 20.4887 30.0407 20.2277 29.0306 20.2271Z" fill="#B12028"/>
<path id="Vector_11" d="M5.78483 20.2271H15.7288L9.97343 10.4888C9.6531 9.95539 9.39566 9.38812 9.20605 8.79785L0.796875 23.0453C1.30479 22.1901 2.03246 21.48 2.90753 20.9855C3.7826 20.4911 4.77458 20.2297 5.78483 20.2271Z" fill="#0075C9"/>
<path id="Vector_12" d="M34.0185 23.0453L25.6094 8.79785C25.4086 9.38909 25.1404 9.9563 24.81 10.4888L19.0547 20.2271H29.0306C30.0408 20.2297 31.0328 20.4911 31.9079 20.9855C32.783 21.48 33.5106 22.1901 34.0185 23.0453Z" fill="#F32735"/>
<path id="Vector_13" d="M23.1436 6.13636C23.1436 4.64151 22.5372 3.20788 21.4579 2.15085C20.3785 1.09383 18.9146 0.5 17.3882 0.5C15.8618 0.5 14.3979 1.09383 13.3186 2.15085C12.2393 3.20788 11.6329 4.64151 11.6329 6.13636C11.6271 7.1302 11.9039 8.10601 12.4323 8.95455L17.3882 17.4091L22.3762 8.95455C22.88 8.09736 23.1447 7.12542 23.1436 6.13636Z" fill="#592C82"/>
</g>
</g>
</svg>
